# xmcd
#
# Track frame offsets:
#	180
#	19243
#	39908
#	56234
#	80502
#	90961
#	112177
#	128582
#	145119
#
# Disc length: 2333 seconds
#
# Revision: 2
# Processed by: cddbd v1.4PL0 Copyright (c) Steve Scherf et al.
# Submitted via: audiograbber 1.81.01
#
DISCID=6f091b09
DTITLE=Blues de vache - Ou est ton bétail ?
DYEAR=1900
DGENRE=Blues
TTITLE0=Funky Bernard - Instrumantal d'accès
TTITLE1=Bouges tes os
TTITLE2=BD
TTITLE3=La Strato Machine
TTITLE4=Point of the Funky day
TTITLE5=Zoë
TTITLE6=Fe Bo Che Toa
TTITLE7=So Special
TTITLE8=Marguerite
EXTD=B. Issartel\nDji\nP. Baldy\nF. Clair\nS. Martyn's
EXTT0=
EXTT1=
EXTT2=
EXTT3=
EXTT4=
EXTT5=
EXTT6=
EXTT7=
EXTT8=
PLAYORDER=
